<svg width="170" height="23" viewBox="0 0 170 23" fill="none" xmlns="http://www.w3.org/2000/svg">
<g clip-path="url(#clip0_221_37)">
<path d="M4 2.5C4 1.94772 4.44772 1.5 5 1.5H17C17.5523 1.5 18 1.94772 18 2.5V21.5H4V2.5Z" fill="#006C4D"/>
<g filter="url(#filter0_d_221_37)">
<path d="M4 8.5C4 7.39543 4.89543 6.5 6 6.5H16C17.1046 6.5 18 7.39543 18 8.5V21.5H4V8.5Z" fill="#CFE9D9"/>
</g>
<path d="M3 9.5H19V22.5H3V9.5Z" fill="#CFE9D9"/>
<rect x="9" y="7.5" width="4" height="1" rx="0.5" fill="#707973"/>
</g>
<path d="M21.5795 8.21023V7.27273H28.125V8.21023H25.3807V16H24.3239V8.21023H21.5795ZM30.6254 12.0625V16H29.6197V7.27273H30.6254V10.4773H30.7106C30.864 10.1392 31.0941 9.87074 31.4009 9.67188C31.7106 9.47017 32.1225 9.36932 32.6367 9.36932C33.0827 9.36932 33.4734 9.45881 33.8086 9.63778C34.1438 9.81392 34.4038 10.0852 34.5884 10.4517C34.7759 10.8153 34.8697 11.2784 34.8697 11.8409V16H33.864V11.9091C33.864 11.3892 33.729 10.9872 33.4592 10.7031C33.1921 10.4162 32.8214 10.2727 32.3469 10.2727C32.0174 10.2727 31.7219 10.3423 31.4606 10.4815C31.2021 10.6207 30.9975 10.8239 30.8469 11.0909C30.6992 11.358 30.6254 11.6818 30.6254 12.0625ZM39.4538 16.1364C38.8232 16.1364 38.2791 15.9972 37.8217 15.7188C37.3672 15.4375 37.0163 15.0455 36.7692 14.5426C36.5249 14.0369 36.4027 13.4489 36.4027 12.7784C36.4027 12.108 36.5249 11.517 36.7692 11.0057C37.0163 10.4915 37.3601 10.0909 37.8004 9.80398C38.2436 9.5142 38.7607 9.36932 39.3516 9.36932C39.6925 9.36932 40.0291 9.42614 40.3615 9.53977C40.6939 9.65341 40.9964 9.83807 41.2692 10.0938C41.5419 10.3466 41.7592 10.6818 41.9212 11.0994C42.0831 11.517 42.1641 12.0312 42.1641 12.642V13.0682H37.1186V12.1989H41.1413C41.1413 11.8295 41.0675 11.5 40.9197 11.2102C40.7749 10.9205 40.5675 10.6918 40.2976 10.5241C40.0305 10.3565 39.7152 10.2727 39.3516 10.2727C38.951 10.2727 38.6044 10.3722 38.3118 10.571C38.022 10.767 37.799 11.0227 37.6428 11.3381C37.4865 11.6534 37.4084 11.9915 37.4084 12.3523V12.9318C37.4084 13.4261 37.4936 13.8452 37.6641 14.1889C37.8374 14.5298 38.0774 14.7898 38.3842 14.9688C38.6911 15.1449 39.0476 15.233 39.4538 15.233C39.718 15.233 39.9567 15.196 40.1697 15.1222C40.3857 15.0455 40.5717 14.9318 40.728 14.7812C40.8842 14.6278 41.005 14.4375 41.0902 14.2102L42.0618 14.483C41.9595 14.8125 41.7876 15.1023 41.5462 15.3523C41.3047 15.5994 41.0064 15.7926 40.6513 15.9318C40.2962 16.0682 39.897 16.1364 39.4538 16.1364ZM43.4723 14.2102V13.3409L47.3075 7.27273H47.9382V8.61932H47.5121L44.6143 13.2045V13.2727H49.7791V14.2102H43.4723ZM47.5803 16V13.946V13.5412V7.27273H48.5859V16H47.5803ZM54.1545 7.15341C54.5124 7.15625 54.8704 7.22443 55.2283 7.35795C55.5863 7.49148 55.913 7.71307 56.2085 8.02273C56.5039 8.32955 56.7411 8.74858 56.9201 9.27983C57.0991 9.81108 57.1886 10.4773 57.1886 11.2784C57.1886 12.054 57.1147 12.7429 56.967 13.3452C56.8221 13.9446 56.6119 14.4503 56.3363 14.8622C56.0636 15.2741 55.7312 15.5866 55.3391 15.7997C54.9499 16.0128 54.5096 16.1193 54.0181 16.1193C53.5295 16.1193 53.0934 16.0227 52.7099 15.8295C52.3292 15.6335 52.0167 15.3622 51.7724 15.0156C51.5309 14.6662 51.3761 14.2614 51.3079 13.8011H52.3477C52.4414 14.2017 52.6275 14.5327 52.9059 14.794C53.1871 15.0526 53.5579 15.1818 54.0181 15.1818C54.6914 15.1818 55.2227 14.8878 55.6119 14.2997C56.0039 13.7116 56.1999 12.8807 56.1999 11.8068H56.1317C55.9727 12.0455 55.7837 12.2514 55.565 12.4247C55.3462 12.598 55.1033 12.7315 54.8363 12.8253C54.5692 12.919 54.2852 12.9659 53.984 12.9659C53.484 12.9659 53.0252 12.8423 52.6076 12.5952C52.1928 12.3452 51.8604 12.0028 51.6104 11.5682C51.3633 11.1307 51.2397 10.6307 51.2397 10.0682C51.2397 9.53409 51.359 9.04545 51.5977 8.60227C51.8391 8.15625 52.1772 7.80114 52.6119 7.53693C53.0494 7.27273 53.5636 7.14489 54.1545 7.15341ZM54.1545 8.09091C53.7965 8.09091 53.4741 8.1804 53.1871 8.35938C52.9031 8.53551 52.6772 8.77415 52.5096 9.07528C52.3448 9.37358 52.2624 9.70455 52.2624 10.0682C52.2624 10.4318 52.342 10.7628 52.5011 11.0611C52.663 11.3565 52.8832 11.5923 53.1616 11.7685C53.4428 11.9418 53.7624 12.0284 54.1204 12.0284C54.3903 12.0284 54.6417 11.9759 54.8746 11.8707C55.1076 11.7628 55.3107 11.6165 55.484 11.4318C55.6602 11.2443 55.7979 11.0327 55.8974 10.7969C55.9968 10.5582 56.0465 10.3097 56.0465 10.0511C56.0465 9.71023 55.9641 9.39062 55.7994 9.09233C55.6374 8.79403 55.413 8.55256 55.1261 8.3679C54.842 8.18324 54.5181 8.09091 54.1545 8.09091ZM59.3097 16.0682C59.0994 16.0682 58.919 15.9929 58.7685 15.8423C58.6179 15.6918 58.5426 15.5114 58.5426 15.3011C58.5426 15.0909 58.6179 14.9105 58.7685 14.7599C58.919 14.6094 59.0994 14.5341 59.3097 14.5341C59.5199 14.5341 59.7003 14.6094 59.8509 14.7599C60.0014 14.9105 60.0767 15.0909 60.0767 15.3011C60.0767 15.4403 60.0412 15.5682 59.9702 15.6847C59.902 15.8011 59.8097 15.8949 59.6932 15.9659C59.5795 16.0341 59.4517 16.0682 59.3097 16.0682ZM62.0178 7.27273H63.2791L66.245 14.517H66.3473L69.3132 7.27273H70.5746V16H69.5859V9.36932H69.5007L66.7734 16H65.8189L63.0916 9.36932H63.0064V16H62.0178V7.27273ZM74.4833 16.1534C74.0685 16.1534 73.6921 16.0753 73.354 15.919C73.016 15.7599 72.7475 15.5312 72.5487 15.233C72.3498 14.9318 72.2504 14.5682 72.2504 14.142C72.2504 13.767 72.3242 13.4631 72.4719 13.2301C72.6197 12.9943 72.8171 12.8097 73.0643 12.6761C73.3114 12.5426 73.5842 12.4432 73.8825 12.3778C74.1836 12.3097 74.4862 12.2557 74.7901 12.2159C75.1879 12.1648 75.5103 12.1264 75.7575 12.1009C76.0075 12.0724 76.1893 12.0256 76.3029 11.9602C76.4194 11.8949 76.4776 11.7812 76.4776 11.6193V11.5852C76.4776 11.1648 76.3626 10.8381 76.1325 10.6051C75.9052 10.3722 75.56 10.2557 75.0969 10.2557C74.6168 10.2557 74.2404 10.3608 73.9677 10.571C73.695 10.7812 73.5032 11.0057 73.3924 11.2443L72.4379 10.9034C72.6083 10.5057 72.8356 10.196 73.1197 9.97443C73.4066 9.75 73.7191 9.59375 74.0572 9.50568C74.3981 9.41477 74.7333 9.36932 75.0629 9.36932C75.2731 9.36932 75.5146 9.39489 75.7873 9.44602C76.0629 9.49432 76.3285 9.59517 76.5842 9.74858C76.8427 9.90199 77.0572 10.1335 77.2276 10.4432C77.3981 10.7528 77.4833 11.1676 77.4833 11.6875V16H76.4776V15.1136H76.4265C76.3583 15.2557 76.2447 15.4077 76.0856 15.5696C75.9265 15.7315 75.7148 15.8693 75.4506 15.983C75.1864 16.0966 74.864 16.1534 74.4833 16.1534ZM74.6367 15.25C75.0344 15.25 75.3697 15.1719 75.6424 15.0156C75.918 14.8594 76.1254 14.6577 76.2646 14.4105C76.4066 14.1634 76.4776 13.9034 76.4776 13.6307V12.7102C76.435 12.7614 76.3413 12.8082 76.1964 12.8509C76.0543 12.8906 75.8896 12.9261 75.7021 12.9574C75.5174 12.9858 75.337 13.0114 75.1609 13.0341C74.9876 13.054 74.8469 13.071 74.739 13.0852C74.4776 13.1193 74.2333 13.1747 74.006 13.2514C73.7816 13.3253 73.5998 13.4375 73.4606 13.5881C73.3242 13.7358 73.256 13.9375 73.256 14.1932C73.256 14.5426 73.3853 14.8068 73.6438 14.9858C73.9052 15.1619 74.2362 15.25 74.6367 15.25ZM83.4439 13.3239V9.45455H84.4496V16H83.4439V14.892H83.3757C83.2223 15.2244 82.9837 15.5071 82.6598 15.7401C82.3359 15.9702 81.9268 16.0852 81.4325 16.0852C81.0234 16.0852 80.6598 15.9957 80.3416 15.8168C80.0234 15.6349 79.7734 15.3622 79.5916 14.9986C79.4098 14.6321 79.3189 14.1705 79.3189 13.6136V9.45455H80.3246V13.5455C80.3246 14.0227 80.4581 14.4034 80.7251 14.6875C80.995 14.9716 81.3388 15.1136 81.7564 15.1136C82.0064 15.1136 82.2607 15.0497 82.5192 14.9219C82.7805 14.794 82.9993 14.598 83.1754 14.3338C83.3544 14.0696 83.4439 13.733 83.4439 13.3239ZM86.2915 16V9.45455H87.2972V16H86.2915ZM86.8029 8.36364C86.6069 8.36364 86.4379 8.29688 86.2958 8.16335C86.1566 8.02983 86.087 7.86932 86.087 7.68182C86.087 7.49432 86.1566 7.33381 86.2958 7.20028C86.4379 7.06676 86.6069 7 86.8029 7C86.9989 7 87.1665 7.06676 87.3058 7.20028C87.4478 7.33381 87.5188 7.49432 87.5188 7.68182C87.5188 7.86932 87.4478 8.02983 87.3058 8.16335C87.1665 8.29688 86.9989 8.36364 86.8029 8.36364ZM89.8722 16.0682C89.6619 16.0682 89.4815 15.9929 89.331 15.8423C89.1804 15.6918 89.1051 15.5114 89.1051 15.3011C89.1051 15.0909 89.1804 14.9105 89.331 14.7599C89.4815 14.6094 89.6619 14.5341 89.8722 14.5341C90.0824 14.5341 90.2628 14.6094 90.4134 14.7599C90.5639 14.9105 90.6392 15.0909 90.6392 15.3011C90.6392 15.4403 90.6037 15.5682 90.5327 15.6847C90.4645 15.8011 90.3722 15.8949 90.2557 15.9659C90.142 16.0341 90.0142 16.0682 89.8722 16.0682ZM92.5803 16V7.27273H95.6314C96.2393 7.27273 96.7408 7.37784 97.1357 7.58807C97.5305 7.79545 97.8246 8.07528 98.0178 8.42756C98.2109 8.77699 98.3075 9.16477 98.3075 9.59091C98.3075 9.96591 98.2408 10.2756 98.1072 10.5199C97.9766 10.7642 97.8033 10.9574 97.5874 11.0994C97.3743 11.2415 97.1428 11.3466 96.8928 11.4148V11.5C97.1598 11.517 97.4283 11.6108 97.6982 11.7812C97.968 11.9517 98.1939 12.196 98.3757 12.5142C98.5575 12.8324 98.6484 13.2216 98.6484 13.6818C98.6484 14.1193 98.549 14.5128 98.3501 14.8622C98.1513 15.2116 97.8374 15.4886 97.4084 15.6932C96.9794 15.8977 96.4212 16 95.7337 16H92.5803ZM93.6371 15.0625H95.7337C96.424 15.0625 96.9141 14.929 97.2038 14.6619C97.4964 14.392 97.6428 14.0653 97.6428 13.6818C97.6428 13.3864 97.5675 13.1136 97.4169 12.8636C97.2663 12.6108 97.0518 12.4091 96.7734 12.2585C96.495 12.1051 96.1655 12.0284 95.7848 12.0284H93.6371V15.0625ZM93.6371 11.108H95.5973C95.9155 11.108 96.2024 11.0455 96.4581 10.9205C96.7166 10.7955 96.9212 10.6193 97.0717 10.392C97.2251 10.1648 97.3018 9.89773 97.3018 9.59091C97.3018 9.20739 97.1683 8.8821 96.9013 8.61506C96.6342 8.34517 96.2109 8.21023 95.6314 8.21023H93.6371V11.108ZM102.908 16.1364C102.317 16.1364 101.798 15.9957 101.352 15.7145C100.909 15.4332 100.562 15.0398 100.312 14.5341C100.065 14.0284 99.9418 13.4375 99.9418 12.7614C99.9418 12.0795 100.065 11.4844 100.312 10.9759C100.562 10.4673 100.909 10.0724 101.352 9.79119C101.798 9.50994 102.317 9.36932 102.908 9.36932C103.499 9.36932 104.016 9.50994 104.459 9.79119C104.905 10.0724 105.251 10.4673 105.499 10.9759C105.749 11.4844 105.874 12.0795 105.874 12.7614C105.874 13.4375 105.749 14.0284 105.499 14.5341C105.251 15.0398 104.905 15.4332 104.459 15.7145C104.016 15.9957 103.499 16.1364 102.908 16.1364ZM102.908 15.233C103.357 15.233 103.726 15.1179 104.016 14.8878C104.305 14.6577 104.52 14.3551 104.659 13.9801C104.798 13.6051 104.868 13.1989 104.868 12.7614C104.868 12.3239 104.798 11.9162 104.659 11.5384C104.52 11.1605 104.305 10.8551 104.016 10.6222C103.726 10.3892 103.357 10.2727 102.908 10.2727C102.459 10.2727 102.089 10.3892 101.8 10.6222C101.51 10.8551 101.295 11.1605 101.156 11.5384C101.017 11.9162 100.947 12.3239 100.947 12.7614C100.947 13.1989 101.017 13.6051 101.156 13.9801C101.295 14.3551 101.51 14.6577 101.8 14.8878C102.089 15.1179 102.459 15.233 102.908 15.233ZM110.255 9.45455V10.3068H106.863V9.45455H110.255ZM107.852 7.88636H108.858V14.125C108.858 14.4091 108.899 14.6222 108.981 14.7642C109.066 14.9034 109.174 14.9972 109.305 15.0455C109.439 15.0909 109.579 15.1136 109.727 15.1136C109.838 15.1136 109.929 15.108 110 15.0966C110.071 15.0824 110.127 15.071 110.17 15.0625L110.375 15.9659C110.306 15.9915 110.211 16.017 110.089 16.0426C109.967 16.071 109.812 16.0852 109.625 16.0852C109.341 16.0852 109.062 16.0241 108.789 15.902C108.52 15.7798 108.295 15.5938 108.116 15.3438C107.94 15.0938 107.852 14.7784 107.852 14.3977V7.88636ZM114.615 9.45455V10.3068H111.223V9.45455H114.615ZM112.211 7.88636H113.217V14.125C113.217 14.4091 113.258 14.6222 113.341 14.7642C113.426 14.9034 113.534 14.9972 113.664 15.0455C113.798 15.0909 113.939 15.1136 114.086 15.1136C114.197 15.1136 114.288 15.108 114.359 15.0966C114.43 15.0824 114.487 15.071 114.529 15.0625L114.734 15.9659C114.666 15.9915 114.571 16.017 114.449 16.0426C114.326 16.071 114.172 16.0852 113.984 16.0852C113.7 16.0852 113.422 16.0241 113.149 15.902C112.879 15.7798 112.654 15.5938 112.475 15.3438C112.299 15.0938 112.211 14.7784 112.211 14.3977V7.88636ZM118.716 16.1364C118.125 16.1364 117.607 15.9957 117.161 15.7145C116.718 15.4332 116.371 15.0398 116.121 14.5341C115.874 14.0284 115.75 13.4375 115.75 12.7614C115.75 12.0795 115.874 11.4844 116.121 10.9759C116.371 10.4673 116.718 10.0724 117.161 9.79119C117.607 9.50994 118.125 9.36932 118.716 9.36932C119.307 9.36932 119.824 9.50994 120.267 9.79119C120.713 10.0724 121.06 10.4673 121.307 10.9759C121.557 11.4844 121.682 12.0795 121.682 12.7614C121.682 13.4375 121.557 14.0284 121.307 14.5341C121.06 15.0398 120.713 15.4332 120.267 15.7145C119.824 15.9957 119.307 16.1364 118.716 16.1364ZM118.716 15.233C119.165 15.233 119.534 15.1179 119.824 14.8878C120.114 14.6577 120.328 14.3551 120.468 13.9801C120.607 13.6051 120.676 13.1989 120.676 12.7614C120.676 12.3239 120.607 11.9162 120.468 11.5384C120.328 11.1605 120.114 10.8551 119.824 10.6222C119.534 10.3892 119.165 10.2727 118.716 10.2727C118.267 10.2727 117.898 10.3892 117.608 10.6222C117.319 10.8551 117.104 11.1605 116.965 11.5384C116.826 11.9162 116.756 12.3239 116.756 12.7614C116.756 13.1989 116.826 13.6051 116.965 13.9801C117.104 14.3551 117.319 14.6577 117.608 14.8878C117.898 15.1179 118.267 15.233 118.716 15.233ZM123.217 16V9.45455H124.189V10.4773H124.274C124.411 10.1278 124.631 9.85653 124.935 9.66335C125.239 9.46733 125.604 9.36932 126.03 9.36932C126.462 9.36932 126.821 9.46733 127.108 9.66335C127.398 9.85653 127.624 10.1278 127.786 10.4773H127.854C128.021 10.1392 128.273 9.87074 128.608 9.67188C128.943 9.47017 129.345 9.36932 129.814 9.36932C130.399 9.36932 130.878 9.55256 131.25 9.91903C131.622 10.2827 131.808 10.8494 131.808 11.6193V16H130.803V11.6193C130.803 11.1364 130.67 10.7912 130.406 10.5838C130.142 10.3764 129.831 10.2727 129.473 10.2727C129.013 10.2727 128.656 10.4119 128.403 10.6903C128.151 10.9659 128.024 11.3153 128.024 11.7386V16H127.001V11.517C127.001 11.1449 126.881 10.8452 126.639 10.6179C126.398 10.3878 126.087 10.2727 125.706 10.2727C125.445 10.2727 125.2 10.3423 124.973 10.4815C124.749 10.6207 124.567 10.8139 124.428 11.0611C124.291 11.3054 124.223 11.5881 124.223 11.9091V16H123.217ZM138.556 9.45455C138.505 9.02273 138.298 8.6875 137.934 8.44886C137.57 8.21023 137.124 8.09091 136.596 8.09091C136.21 8.09091 135.871 8.15341 135.582 8.27841C135.295 8.40341 135.07 8.57528 134.908 8.79403C134.749 9.01278 134.67 9.26136 134.67 9.53977C134.67 9.77273 134.725 9.97301 134.836 10.1406C134.95 10.3054 135.094 10.4432 135.271 10.554C135.447 10.6619 135.631 10.7514 135.825 10.8224C136.018 10.8906 136.195 10.946 136.357 10.9886L137.244 11.2273C137.471 11.2869 137.724 11.3693 138.002 11.4744C138.283 11.5795 138.552 11.723 138.808 11.9048C139.066 12.0838 139.279 12.3139 139.447 12.5952C139.614 12.8764 139.698 13.2216 139.698 13.6307C139.698 14.1023 139.575 14.5284 139.327 14.9091C139.083 15.2898 138.725 15.5923 138.254 15.8168C137.785 16.0412 137.215 16.1534 136.545 16.1534C135.92 16.1534 135.379 16.0526 134.921 15.8509C134.467 15.6491 134.109 15.3679 133.847 15.0071C133.589 14.6463 133.442 14.2273 133.408 13.75H134.499C134.528 14.0795 134.638 14.3523 134.832 14.5682C135.028 14.7812 135.275 14.9403 135.573 15.0455C135.874 15.1477 136.198 15.1989 136.545 15.1989C136.948 15.1989 137.31 15.1335 137.631 15.0028C137.952 14.8693 138.207 14.6847 138.394 14.4489C138.582 14.2102 138.675 13.9318 138.675 13.6136C138.675 13.3239 138.594 13.0881 138.433 12.9062C138.271 12.7244 138.058 12.5767 137.793 12.4631C137.529 12.3494 137.244 12.25 136.937 12.1648L135.863 11.858C135.181 11.6619 134.641 11.3821 134.244 11.0185C133.846 10.6548 133.647 10.179 133.647 9.59091C133.647 9.10227 133.779 8.67614 134.043 8.3125C134.31 7.94602 134.668 7.66193 135.117 7.46023C135.569 7.25568 136.073 7.15341 136.63 7.15341C137.192 7.15341 137.692 7.25426 138.13 7.45597C138.567 7.65483 138.914 7.92756 139.17 8.27415C139.428 8.62074 139.565 9.0142 139.579 9.45455H138.556ZM142.305 12.0625V16H141.299V7.27273H142.305V10.4773H142.39C142.544 10.1392 142.774 9.87074 143.081 9.67188C143.39 9.47017 143.802 9.36932 144.316 9.36932C144.762 9.36932 145.153 9.45881 145.488 9.63778C145.824 9.81392 146.083 10.0852 146.268 10.4517C146.456 10.8153 146.549 11.2784 146.549 11.8409V16H145.544V11.9091C145.544 11.3892 145.409 10.9872 145.139 10.7031C144.872 10.4162 144.501 10.2727 144.027 10.2727C143.697 10.2727 143.402 10.3423 143.14 10.4815C142.882 10.6207 142.677 10.8239 142.527 11.0909C142.379 11.358 142.305 11.6818 142.305 12.0625ZM151.134 16.1364C150.503 16.1364 149.959 15.9972 149.501 15.7188C149.047 15.4375 148.696 15.0455 148.449 14.5426C148.205 14.0369 148.082 13.4489 148.082 12.7784C148.082 12.108 148.205 11.517 148.449 11.0057C148.696 10.4915 149.04 10.0909 149.48 9.80398C149.923 9.5142 150.44 9.36932 151.031 9.36932C151.372 9.36932 151.709 9.42614 152.041 9.53977C152.374 9.65341 152.676 9.83807 152.949 10.0938C153.222 10.3466 153.439 10.6818 153.601 11.0994C153.763 11.517 153.844 12.0312 153.844 12.642V13.0682H148.798V12.1989H152.821C152.821 11.8295 152.747 11.5 152.599 11.2102C152.455 10.9205 152.247 10.6918 151.977 10.5241C151.71 10.3565 151.395 10.2727 151.031 10.2727C150.631 10.2727 150.284 10.3722 149.991 10.571C149.702 10.767 149.479 11.0227 149.322 11.3381C149.166 11.6534 149.088 11.9915 149.088 12.3523V12.9318C149.088 13.4261 149.173 13.8452 149.344 14.1889C149.517 14.5298 149.757 14.7898 150.064 14.9688C150.371 15.1449 150.727 15.233 151.134 15.233C151.398 15.233 151.636 15.196 151.849 15.1222C152.065 15.0455 152.251 14.9318 152.408 14.7812C152.564 14.6278 152.685 14.4375 152.77 14.2102L153.741 14.483C153.639 14.8125 153.467 15.1023 153.226 15.3523C152.984 15.5994 152.686 15.7926 152.331 15.9318C151.976 16.0682 151.577 16.1364 151.134 16.1364ZM158.118 16.1364C157.487 16.1364 156.943 15.9972 156.486 15.7188C156.031 15.4375 155.68 15.0455 155.433 14.5426C155.189 14.0369 155.067 13.4489 155.067 12.7784C155.067 12.108 155.189 11.517 155.433 11.0057C155.68 10.4915 156.024 10.0909 156.464 9.80398C156.908 9.5142 157.425 9.36932 158.016 9.36932C158.357 9.36932 158.693 9.42614 159.026 9.53977C159.358 9.65341 159.661 9.83807 159.933 10.0938C160.206 10.3466 160.423 10.6818 160.585 11.0994C160.747 11.517 160.828 12.0312 160.828 12.642V13.0682H155.783V12.1989H159.805C159.805 11.8295 159.732 11.5 159.584 11.2102C159.439 10.9205 159.232 10.6918 158.962 10.5241C158.695 10.3565 158.379 10.2727 158.016 10.2727C157.615 10.2727 157.268 10.3722 156.976 10.571C156.686 10.767 156.463 11.0227 156.307 11.3381C156.151 11.6534 156.072 11.9915 156.072 12.3523V12.9318C156.072 13.4261 156.158 13.8452 156.328 14.1889C156.501 14.5298 156.741 14.7898 157.048 14.9688C157.355 15.1449 157.712 15.233 158.118 15.233C158.382 15.233 158.621 15.196 158.834 15.1222C159.05 15.0455 159.236 14.9318 159.392 14.7812C159.548 14.6278 159.669 14.4375 159.754 14.2102L160.726 14.483C160.624 14.8125 160.452 15.1023 160.21 15.3523C159.969 15.5994 159.67 15.7926 159.315 15.9318C158.96 16.0682 158.561 16.1364 158.118 16.1364ZM165.205 9.45455V10.3068H161.812V9.45455H165.205ZM162.801 7.88636H163.807V14.125C163.807 14.4091 163.848 14.6222 163.93 14.7642C164.016 14.9034 164.124 14.9972 164.254 15.0455C164.388 15.0909 164.528 15.1136 164.676 15.1136C164.787 15.1136 164.878 15.108 164.949 15.0966C165.02 15.0824 165.077 15.071 165.119 15.0625L165.324 15.9659C165.256 15.9915 165.161 16.017 165.038 16.0426C164.916 16.071 164.761 16.0852 164.574 16.0852C164.29 16.0852 164.011 16.0241 163.739 15.902C163.469 15.7798 163.244 15.5938 163.065 15.3438C162.889 15.0938 162.801 14.7784 162.801 14.3977V7.88636Z" fill="black"/>
<defs>
<filter id="filter0_d_221_37" x="3" y="5.25" width="16" height="17" filterUnits="userSpaceOnUse" color-interpolation-filters="sRGB">
<feFlood flood-opacity="0" result="BackgroundImageFix"/>
<feColorMatrix in="SourceAlpha" type="matrix" values="0 0 0 0 0 0 0 0 0 0 0 0 0 0 0 0 0 0 127 0" result="hardAlpha"/>
<feOffset dy="-0.25"/>
<feGaussianBlur stdDeviation="0.5"/>
<feComposite in2="hardAlpha" operator="out"/>
<feColorMatrix type="matrix" values="0 0 0 0 0 0 0 0 0 0 0 0 0 0 0 0 0 0 0.25 0"/>
<feBlend mode="normal" in2="BackgroundImageFix" result="effect1_dropShadow_221_37"/>
<feBlend mode="normal" in="SourceGraphic" in2="effect1_dropShadow_221_37" result="shape"/>
</filter>
<clipPath id="clip0_221_37">
<rect width="14" height="20" fill="white" transform="translate(4 1.5)"/>
</clipPath>
</defs>
</svg>
